# xmcd
#
# Track frame offsets: 
#        150
#        13502
#        26192
#        40064
#        53135
#        64978
#        77670
#        90940
#        103112
#        115244
#        129728
#        141737
#        156192
#        166744
#        180888
#        191841
#        204174
#        215234
#        225423
#        237663
#
# Disc length: 3352 seconds
#
# Revision: 0
# Processed by: cddbd v1.5.2PL0 Copyright (c) Steve Scherf et al.
# Submitted via: ExactAudioCopy v1.3
#
DISCID=150d1614
DTITLE=Various Artist - Simply Memphis Blues
DYEAR=2015
DGENRE=Blues
TTITLE0=B.B. King - Woke Up This Morning
TTITLE1=Howlin' Wolf - I Asked For Water (She Gave Me Gasoline)
TTITLE2=Rosco Gordon - Booted
TTITLE3=Robert Wilkins - Rolling Stone
TTITLE4=Little Junior's Blue Flames - The Next Time You See Me
TTITLE5=Doctor Ross - Come Back Baby
TTITLE6=Memphis Jug Band - Stealin', Stealin'
TTITLE7=Memphis Slim - Mother Earth
TTITLE8=Frank Stokes and Dan Sane - Mr. Crump Don't Like It
TTITLE9=Gus Cannon's Jug Stompers - Feather Bed
TTITLE10=Willie Nix - Try Me One More Time
TTITLE11=B.B. King - Sweet Black Angel
TTITLE12=Ike Turner - She Made My Blood Run Cold
TTITLE13=Furry Lewis - I Will Turn Your Money Green
TTITLE14=Ida Cox - Wild Women Don't Have The Blues
TTITLE15=Memphis Minnie - Nothing Is Rambling
TTITLE16=Willie Johnson and Sammy Lewis - I Feel So Worried
TTITLE17=Junior Wells - Messin' With The Kid
TTITLE18=Joe Hill Louis - We All Gotta Go Sometime
TTITLE19=Sleepy John Estes - Rats In My Kitchen
EXTD=
EXTT0=
EXTT1=
EXTT2=
EXTT3=
EXTT4=
EXTT5=
EXTT6=
EXTT7=
EXTT8=
EXTT9=
EXTT10=
EXTT11=
EXTT12=
EXTT13=
EXTT14=
EXTT15=
EXTT16=
EXTT17=
EXTT18=
EXTT19=
PLAYORDER=
